<?xml version="1.0" encoding="UTF-8"?>
<svg xmlns="http://www.w3.org/2000/svg" xmlns:xlink="http://www.w3.org/1999/xlink" width="52pt" height="30pt" viewBox="0 0 52 30" version="1.1">
<g id="surface1">
<path style=" stroke:none;fill-rule:evenodd;fill:rgb(96.078431%,96.078431%,96.078431%);fill-opacity:1;" d="M 52.429688 25.566406 C 52.429688 27.574219 50.460938 29.214844 48.0625 29.214844 L 4.371094 29.214844 C 1.964844 29.214844 0 27.574219 0 25.566406 L 0 3.652344 C 0 1.640625 1.964844 0 4.371094 0 L 48.0625 0 C 50.460938 0 52.429688 1.640625 52.429688 3.652344 Z M 52.429688 25.566406 "/>
<path style=" stroke:none;fill-rule:nonzero;fill:rgb(81.568627%,81.568627%,81.568627%);fill-opacity:1;" d="M 48.0625 0 L 4.371094 0 C 1.964844 0 0 1.640625 0 3.652344 L 0 25.566406 C 0 27.574219 1.964844 29.214844 4.371094 29.214844 L 48.0625 29.214844 C 50.460938 29.214844 52.429688 27.574219 52.429688 25.566406 L 52.429688 3.652344 C 52.429688 1.640625 50.460938 0 48.0625 0 Z M 48.0625 0.730469 C 49.988281 0.730469 51.554688 2.039062 51.554688 3.652344 L 51.554688 25.566406 C 51.554688 27.175781 49.988281 28.484375 48.0625 28.484375 L 4.371094 28.484375 C 2.4375 28.484375 0.875 27.175781 0.875 25.566406 L 0.875 3.652344 C 0.875 2.039062 2.4375 0.730469 4.371094 0.730469 Z M 48.0625 0.730469 "/>
<path style=" stroke:none;fill-rule:evenodd;fill:rgb(0%,0%,0%);fill-opacity:1;" d="M 12.085938 7.261719 L 13.820312 7.261719 L 13.820312 21.949219 L 12.085938 21.949219 Z M 22.710938 7.261719 L 24.441406 7.261719 L 24.441406 21.949219 L 22.710938 21.949219 Z M 31.546875 7.261719 L 33.273438 7.261719 L 33.273438 21.949219 L 31.546875 21.949219 Z M 35.058594 7.261719 L 36.785156 7.261719 L 36.785156 21.949219 L 35.058594 21.949219 Z M 38.613281 7.261719 L 40.339844 7.261719 L 40.339844 21.949219 L 38.613281 21.949219 Z M 26.226562 7.261719 L 29.738281 7.261719 L 29.738281 21.949219 L 26.226562 21.949219 Z M 15.621094 7.261719 L 20.90625 7.261719 L 20.90625 21.949219 L 15.621094 21.949219 Z M 15.621094 7.261719 "/>
<path style=" stroke:none;fill-rule:evenodd;fill:rgb(46.666667%,23.529412%,73.72549%);fill-opacity:1;" d="M 7.429688 15.378906 L 45.003906 15.378906 L 45.003906 17.566406 L 7.429688 17.566406 Z M 7.429688 15.378906 "/>
</g>
</svg>
