<?xml version="1.0" encoding="UTF-8"?>
<svg xmlns="http://www.w3.org/2000/svg" xmlns:xlink="http://www.w3.org/1999/xlink" width="53pt" height="30pt" viewBox="0 0 53 30" version="1.1">
<g id="surface1">
<path style=" stroke:none;fill-rule:evenodd;fill:rgb(6.666667%,6.27451%,7.843137%);fill-opacity:1;" d="M 3.53125 0 L 49.449219 0 C 51.398438 0 52.980469 1.582031 52.980469 3.53125 L 52.980469 25.902344 C 52.980469 27.851562 51.398438 29.433594 49.449219 29.433594 L 3.53125 29.433594 C 1.582031 29.433594 0 27.851562 0 25.902344 L 0 3.53125 C 0 1.582031 1.582031 0 3.53125 0 Z M 3.53125 0 "/>
<path style=" stroke:none;fill-rule:nonzero;fill:rgb(100%,79.607843%,1.960784%);fill-opacity:1;" d="M 13.898438 11.214844 C 14.308594 11.085938 14.742188 11.015625 15.195312 11.015625 C 17.175781 11.015625 18.828125 12.371094 19.203125 14.179688 L 22.007812 13.625 C 21.367188 10.558594 18.558594 8.246094 15.195312 8.246094 C 14.425781 8.246094 13.6875 8.367188 12.992188 8.59375 Z M 13.898438 11.214844 "/>
<path style=" stroke:none;fill-rule:nonzero;fill:rgb(0%,64.313725%,87.843137%);fill-opacity:1;" d="M 10.589844 20.003906 L 12.488281 17.933594 C 11.640625 17.207031 11.109375 16.148438 11.109375 14.96875 C 11.109375 13.789062 11.640625 12.730469 12.488281 12.007812 L 10.589844 9.933594 C 9.152344 11.164062 8.246094 12.964844 8.246094 14.96875 C 8.246094 16.972656 9.152344 18.773438 10.589844 20.003906 "/>
<path style=" stroke:none;fill-rule:nonzero;fill:rgb(93.72549%,25.490196%,13.72549%);fill-opacity:1;" d="M 19.203125 15.761719 C 18.824219 17.566406 17.175781 18.925781 15.199219 18.925781 C 14.742188 18.925781 14.304688 18.855469 13.898438 18.71875 L 12.992188 21.347656 C 13.6875 21.570312 14.425781 21.691406 15.199219 21.691406 C 18.558594 21.691406 21.363281 19.382812 22.007812 16.320312 Z M 19.203125 15.761719 "/>
<path style=" stroke:none;fill-rule:nonzero;fill:rgb(100%,100%,100%);fill-opacity:1;" d="M 24.339844 18.136719 C 24.25 17.992188 24.128906 17.757812 24.054688 17.585938 C 23.617188 16.574219 23.597656 15.527344 23.964844 14.523438 C 24.371094 13.421875 25.140625 12.582031 26.140625 12.152344 C 27.394531 11.609375 28.78125 11.714844 29.988281 12.429688 C 30.75 12.867188 31.292969 13.542969 31.703125 14.5 C 31.753906 14.625 31.800781 14.753906 31.847656 14.867188 Z M 26.847656 13.773438 C 25.957031 14.15625 25.496094 14.996094 25.59375 15.972656 L 29.367188 14.347656 C 28.71875 13.585938 27.875 13.332031 26.847656 13.773438 Z M 29.835938 17.308594 C 29.835938 17.308594 29.835938 17.3125 29.835938 17.3125 L 29.757812 17.257812 C 29.53125 17.621094 29.179688 17.921875 28.738281 18.113281 C 27.894531 18.480469 27.109375 18.382812 26.546875 17.890625 L 26.496094 17.96875 L 25.539062 19.402344 C 25.777344 19.566406 26.03125 19.707031 26.296875 19.816406 C 27.355469 20.257812 28.4375 20.234375 29.503906 19.773438 C 30.273438 19.4375 30.878906 18.929688 31.292969 18.285156 Z M 29.835938 17.308594 "/>
<path style=" stroke:none;fill-rule:nonzero;fill:rgb(100%,100%,100%);fill-opacity:1;" d="M 34.574219 10.222656 L 34.574219 18.03125 L 35.917969 18.523438 L 35.15625 20.132812 L 33.675781 19.574219 C 33.34375 19.445312 33.117188 19.246094 32.945312 19.019531 C 32.78125 18.792969 32.660156 18.476562 32.660156 18.054688 L 32.660156 10.222656 Z M 34.574219 10.222656 "/>
<path style=" stroke:none;fill-rule:nonzero;fill:rgb(100%,100%,100%);fill-opacity:1;" d="M 37.898438 15.972656 C 37.898438 15.292969 38.210938 14.6875 38.703125 14.277344 L 37.386719 12.863281 C 36.492188 13.621094 35.933594 14.730469 35.933594 15.96875 C 35.929688 17.203125 36.492188 18.316406 37.382812 19.074219 L 38.695312 17.660156 C 38.207031 17.25 37.898438 16.644531 37.898438 15.972656 Z M 37.898438 15.972656 "/>
<path style=" stroke:none;fill-rule:nonzero;fill:rgb(100%,100%,100%);fill-opacity:1;" d="M 40.238281 18.222656 C 39.980469 18.222656 39.726562 18.179688 39.496094 18.105469 L 38.867188 19.902344 C 39.296875 20.042969 39.753906 20.117188 40.234375 20.117188 C 42.316406 20.121094 44.054688 18.695312 44.457031 16.804688 L 42.527344 16.425781 C 42.308594 17.453125 41.367188 18.222656 40.238281 18.222656 Z M 40.238281 18.222656 "/>
<path style=" stroke:none;fill-rule:nonzero;fill:rgb(100%,100%,100%);fill-opacity:1;" d="M 40.242188 11.824219 C 39.765625 11.824219 39.304688 11.898438 38.875 12.035156 L 39.5 13.835938 C 39.734375 13.757812 39.984375 13.71875 40.242188 13.71875 C 41.371094 13.71875 42.316406 14.496094 42.53125 15.523438 L 44.460938 15.148438 C 44.066406 13.253906 42.328125 11.824219 40.242188 11.824219 Z M 40.242188 11.824219 "/>
</g>
</svg>
