<svg width="221" height="172" viewBox="0 0 221 172" fill="none" xmlns="http://www.w3.org/2000/svg">
<g clip-path="url(#clip0)">
<path d="M194.332 159.235C194.316 159.164 192.765 152.094 195.932 146.221C199.099 140.349 205.858 137.759 205.926 137.734L206.235 137.618L206.308 137.94C206.324 138.01 207.874 145.081 204.708 150.953C201.541 156.826 194.782 159.415 194.714 159.441L194.405 159.557L194.332 159.235ZM205.811 138.403C204.457 138.986 199.114 141.535 196.439 146.495C193.764 151.455 194.571 157.321 194.829 158.771C196.182 158.19 201.524 155.645 204.201 150.68C206.875 145.72 206.069 139.855 205.811 138.403Z" fill="#3F3D56"/>
<path d="M202.288 148.893C196.598 152.317 194.406 159.117 194.406 159.117C194.406 159.117 201.441 160.367 207.131 156.943C212.822 153.52 215.014 146.719 215.014 146.719C215.014 146.719 207.979 145.47 202.288 148.893Z" fill="#D0CDE1"/>
<path d="M78.6505 128.293C77.9738 128.293 77.2903 128.282 76.6193 128.261L76.6345 127.774C77.598 127.804 78.5812 127.812 79.5492 127.799L79.5559 128.287C79.2546 128.291 78.9528 128.293 78.6505 128.293ZM82.4908 128.18L82.4622 127.693C83.4271 127.636 84.4044 127.556 85.3669 127.455L85.4179 127.94C84.448 128.042 83.4633 128.122 82.4908 128.18ZM73.687 128.104C72.714 128.029 71.7308 127.931 70.7644 127.813L70.824 127.329C71.7829 127.446 72.7585 127.543 73.7241 127.617L73.687 128.104ZM88.3307 127.567L88.2575 127.085C89.2162 126.94 90.1823 126.771 91.1282 126.583L91.2232 127.061C90.27 127.25 89.2967 127.421 88.3307 127.567ZM67.8587 127.389C66.8975 127.226 65.9272 127.039 64.975 126.832L65.0785 126.355C66.0235 126.56 66.9862 126.746 67.9401 126.908L67.8587 127.389ZM94.09 126.423L93.9728 125.949C94.9139 125.716 95.8602 125.459 96.7856 125.185L96.9242 125.652C95.9917 125.929 95.0382 126.188 94.09 126.423ZM62.1202 126.143C61.1773 125.892 60.2285 125.616 59.3001 125.323L59.447 124.858C60.3684 125.149 61.31 125.423 62.2455 125.671L62.1202 126.143ZM99.7198 124.752L99.5597 124.292C100.473 123.974 101.391 123.631 102.29 123.271L102.471 123.724C101.566 124.087 100.64 124.432 99.7198 124.752ZM56.5135 124.37C55.5978 124.034 54.6764 123.671 53.7751 123.291L53.9645 122.841C54.8588 123.218 55.7731 123.578 56.6819 123.912L56.5135 124.37ZM105.166 122.573L104.964 122.129C105.841 121.731 106.722 121.305 107.584 120.865L107.806 121.299C106.938 121.743 106.05 122.172 105.166 122.573ZM110.385 119.905L110.144 119.482C110.985 119.002 111.824 118.497 112.639 117.982L112.899 118.394C112.079 118.913 111.233 119.422 110.385 119.905ZM115.342 116.769L115.063 116.37C115.855 115.816 116.645 115.237 117.412 114.648L117.709 115.034C116.937 115.628 116.14 116.212 115.342 116.769ZM40.9941 116.082C40.2068 115.51 39.4203 114.911 38.6563 114.301L38.9607 113.92C39.7189 114.526 40.4994 115.12 41.2807 115.687L40.9941 116.082ZM119.995 113.193L119.68 112.82C120.419 112.197 121.153 111.548 121.864 110.891L122.195 111.249C121.479 111.911 120.739 112.566 119.995 113.193ZM36.4026 112.416C35.6694 111.774 34.9409 111.106 34.2375 110.431L34.5753 110.079C35.2734 110.749 35.9963 111.412 36.7239 112.049L36.4026 112.416ZM124.305 109.206L123.958 108.864C124.639 108.174 125.312 107.461 125.958 106.743L126.321 107.069C125.669 107.793 124.991 108.511 124.305 109.206ZM32.1655 108.35C31.4928 107.642 30.8284 106.911 30.1907 106.176L30.5592 105.857C31.192 106.586 31.8513 107.311 32.519 108.013L32.1655 108.35ZM128.237 104.842L127.86 104.533C128.475 103.785 129.08 103.013 129.66 102.238L130.05 102.53C129.467 103.311 128.857 104.089 128.237 104.842ZM28.3173 103.916C27.7131 103.153 27.1183 102.365 26.5491 101.574L26.945 101.289C27.5098 102.074 28.1002 102.856 28.6998 103.614L28.3173 103.916ZM131.756 100.137L131.353 99.8626C131.897 99.0616 132.43 98.2372 132.936 97.4119L133.352 97.6672C132.841 98.4988 132.304 99.3296 131.756 100.137ZM24.8901 99.1538C24.3586 98.3389 23.8384 97.5005 23.3438 96.6611L23.764 96.4134C24.2549 97.2464 24.7712 98.0786 25.2986 98.887L24.8901 99.1538ZM134.833 95.1268L134.406 94.891C134.875 94.0435 135.33 93.1731 135.759 92.304L136.196 92.5203C135.764 93.3959 135.305 94.2729 134.833 95.1268H134.833ZM137.438 89.8533L136.991 89.6575C137.38 88.7698 137.753 87.8606 138.101 86.9555L138.556 87.1304C138.206 88.0426 137.83 88.9587 137.438 89.8533H137.438ZM19.4132 88.8008C19.0392 87.9033 18.6811 86.9851 18.3488 86.0714L18.8073 85.9047C19.137 86.8114 19.4924 87.7225 19.8633 88.6131L19.4132 88.8008ZM139.548 84.3579L139.085 84.2045C139.389 83.2872 139.676 82.3497 139.938 81.4177L140.408 81.5497C140.144 82.4888 139.854 83.4337 139.548 84.3579ZM17.4092 83.2889C17.119 82.3593 16.8462 81.4096 16.5986 80.4659L17.0705 80.3421C17.3162 81.2786 17.5869 82.2211 17.8748 83.1436L17.4092 83.2889ZM141.137 78.7048L140.662 78.5943C140.881 77.6541 141.08 76.694 141.256 75.741L141.736 75.8292C141.559 76.7898 141.358 77.757 141.137 78.7048ZM15.9193 77.6086C15.7159 76.6559 15.5318 75.6853 15.3722 74.7233L15.8534 74.6432C16.0119 75.5981 16.1946 76.5613 16.3964 77.5067L15.9193 77.6086ZM142.2 72.9297L141.717 72.8635C141.848 71.9081 141.959 70.934 142.046 69.9679L142.532 70.0117C142.444 70.9854 142.332 71.967 142.2 72.9297ZM14.958 71.816C14.843 70.8503 14.7485 69.8669 14.6772 68.8929L15.1638 68.8572C15.2344 69.824 15.3283 70.7999 15.4425 71.7583L14.958 71.816ZM142.731 67.082L142.244 67.0601C142.287 66.0935 142.309 65.1132 142.309 64.1464H142.797C142.797 65.1205 142.775 66.1083 142.731 67.082ZM14.5294 65.9597C14.5127 65.3616 14.5043 64.7514 14.5042 64.1464C14.5042 63.771 14.5074 63.3963 14.5138 63.0224L15.0016 63.0309C14.9952 63.402 14.992 63.7738 14.992 64.1464C14.9921 64.7468 15.0005 65.3525 15.017 65.9463L14.5294 65.9597ZM15.1174 60.1188L14.6305 60.0883C14.6914 59.1136 14.7754 58.1292 14.8801 57.1623L15.3651 57.2148C15.2611 58.1744 15.1779 59.1514 15.1174 60.1188H15.1174ZM141.994 57.1428C141.897 56.1811 141.763 55.7122 141.621 54.7547L142.104 54.6835C142.246 55.6482 142.368 56.3847 142.467 57.3536L141.994 57.1428ZM15.7449 54.3254L15.2628 54.2508C15.4122 53.2858 15.5859 52.3132 15.7789 51.3596L16.257 51.4563C16.0655 52.4026 15.8931 53.3679 15.7449 54.3254H15.7449ZM141.129 51.8825C140.943 50.931 140.733 49.9731 140.505 49.0356L140.979 48.9203C141.209 49.865 141.42 50.8302 141.608 51.7889L141.129 51.8825ZM16.9003 48.6139L16.4272 48.4953C16.664 47.5505 16.9264 46.5979 17.207 45.6637L17.674 45.804C17.3957 46.731 17.1354 47.6764 16.9003 48.6139ZM139.75 46.2204C139.478 45.2916 139.181 44.3573 138.867 43.4431L139.328 43.2845C139.645 44.2057 139.944 45.1473 140.219 46.0832L139.75 46.2204ZM18.5795 43.0252L18.1193 42.8635C18.4435 41.9413 18.7935 41.0148 19.1596 40.1096L19.6119 40.2925C19.2486 41.1907 18.9012 42.1102 18.5795 43.0252ZM137.856 40.7094C137.5 39.8117 137.119 38.9108 136.723 38.0315L137.168 37.8312C137.567 38.7173 137.951 39.6251 138.309 40.5296L137.856 40.7094ZM20.7689 37.6112L20.3257 37.4076C20.7331 36.5203 21.1667 35.6306 21.6145 34.7631L22.048 34.9868C21.6035 35.8477 21.1733 36.7307 20.7689 37.6112ZM135.469 35.4074C135.032 34.5463 134.569 33.6833 134.094 32.8429L134.518 32.6025C134.998 33.4495 135.464 34.319 135.904 35.1869L135.469 35.4074ZM23.4463 32.4246L23.0235 32.1812C23.5101 31.3362 24.0233 30.4904 24.5488 29.6675L24.9599 29.93C24.4384 30.7467 23.9291 31.5861 23.4463 32.4246ZM132.603 30.3429C132.087 29.5223 131.548 28.7049 130.999 27.9131L131.399 27.6352C131.953 28.433 132.497 29.2566 133.016 30.0835L132.603 30.3429ZM26.586 27.5079L26.1873 27.2268C26.7497 26.4292 27.3376 25.6343 27.9352 24.864L28.3206 25.1629C27.7277 25.9275 27.144 26.7164 26.586 27.5079ZM129.285 25.5585C128.697 24.7886 128.085 24.0232 127.465 23.2836L127.839 22.9703C128.463 23.7156 129.08 24.4867 129.672 25.2625L129.285 25.5585ZM30.16 22.9003L29.7887 22.584C30.4198 21.8427 31.0775 21.1049 31.7436 20.3911L32.1002 20.7238C31.4392 21.4323 30.7864 22.1646 30.16 22.9003ZM125.543 21.0934C124.888 20.3801 124.208 19.6732 123.523 18.9925L123.867 18.6464C124.557 19.3325 125.242 20.0447 125.902 20.7633L125.543 21.0934ZM34.1368 18.6388L33.7957 18.2901C34.4932 17.6077 35.215 16.933 35.9409 16.2849L36.2658 16.6488C35.5454 17.2919 34.8291 17.9615 34.1368 18.6388V18.6388ZM121.409 16.9852C120.691 16.3338 119.95 15.6914 119.206 15.0759L119.517 14.7C120.266 15.3202 121.014 15.9675 121.737 16.6238L121.409 16.9852ZM38.4827 14.7579L38.1747 14.3796C38.9292 13.7652 39.7089 13.1593 40.4923 12.5786L40.7829 12.9704C40.0053 13.5468 39.2314 14.1481 38.4827 14.7579H38.4827ZM43.1613 11.2902L42.889 10.8856C43.6965 10.3423 44.5277 9.81028 45.3599 9.30401L45.6133 9.72084C44.7876 10.2232 43.9627 10.7512 43.1613 11.2902H43.1613ZM48.1339 8.26552L47.8997 7.8375C48.754 7.37006 49.6299 6.91655 50.5031 6.48937L50.7175 6.92763C49.851 7.35148 48.9817 7.80154 48.1339 8.26552ZM107.005 7.13533C106.137 6.7029 105.248 6.28512 104.362 5.89366L104.559 5.44754C105.452 5.84198 106.348 6.26297 107.222 6.69873L107.005 7.13533ZM53.3587 5.70991L53.1649 5.26235C54.0576 4.87542 54.9708 4.50432 55.879 4.15931L56.0522 4.61544C55.1509 4.95771 54.2447 5.32595 53.3587 5.70991ZM101.664 4.77467C100.761 4.42442 99.8365 4.09024 98.9164 3.78155L99.0717 3.31899C99.9987 3.63018 100.93 3.96686 101.84 4.31997L101.664 4.77467ZM58.7999 3.64376L58.6479 3.18025C59.5749 2.87632 60.5208 2.59014 61.459 2.32992L61.5894 2.79986C60.6583 3.05818 59.7197 3.3421 58.7999 3.64376H58.7999ZM96.1324 2.91848C95.2021 2.65326 94.2532 2.40626 93.3121 2.18439L93.424 1.70969C94.3725 1.93323 95.3286 2.18213 96.2663 2.44925L96.1324 2.91848ZM64.415 2.08543L64.3064 1.60989C65.2567 1.39278 66.2248 1.19497 67.1837 1.02204L67.2704 1.50199C66.3187 1.67372 65.3581 1.86999 64.415 2.08543ZM90.4608 1.5813C89.5109 1.40301 88.5434 1.24439 87.5849 1.10982L87.6525 0.626772C88.6184 0.762421 89.5935 0.922243 90.5508 1.10184L90.4608 1.5813ZM70.1497 1.05051L70.0851 0.566989C71.0507 0.43813 72.0328 0.329756 73.0039 0.2452L73.0463 0.731099C72.0826 0.815177 71.1081 0.92259 70.1497 1.05051ZM84.6902 0.770638C83.7294 0.680126 82.7514 0.610338 81.7832 0.563535L81.807 0.0762065C82.7823 0.123487 83.7677 0.193751 84.736 0.284988L84.6902 0.770638ZM75.955 0.544004L75.9345 0.0566864C76.831 0.0192913 77.7447 0.000239025 78.6505 0L78.8713 0.000355418L78.8699 0.488161L78.6505 0.487805C77.7516 0.488032 76.8446 0.506965 75.955 0.544004Z" fill="#3F3D56"/>
<path d="M220.5 159.096H41.7195V159.584H220.5V159.096Z" fill="#3F3D56"/>
<path d="M146.356 77.0794L148.795 114.884C148.795 114.884 154.649 129.762 154.405 143.909C154.405 143.909 152.21 149.518 153.917 150.494C155.625 151.47 156.6 152.201 155.625 152.933C154.649 153.665 153.917 155.372 154.649 155.86C155.381 156.348 155.625 157.079 155.381 157.079H148.064C148.064 157.079 149.527 153.421 147.332 152.445C145.137 151.47 146.356 149.031 146.356 149.031L130.015 101.226L117.088 145.128C117.088 145.128 119.283 146.592 117.576 147.323C115.869 148.055 115.137 146.592 115.869 148.055C116.6 149.518 115.625 150.25 115.625 150.494C115.625 150.738 108.308 149.762 108.308 149.762C108.308 149.762 111.966 146.592 110.259 145.86C108.551 145.128 107.82 144.397 108.308 143.909C108.795 143.421 110.747 138.787 110.747 138.787C110.747 138.787 111.722 121.226 111.966 120.494C112.21 119.762 111.966 116.348 111.966 114.64C111.966 112.933 111.722 106.104 112.454 104.396C113.186 102.689 113.917 81.7136 117.82 79.2745C121.722 76.8355 146.356 77.0794 146.356 77.0794Z" fill="#2F2E41"/>
<path d="M115.381 149.274C115.381 149.274 120.259 159.274 116.844 160.494C113.429 161.713 109.039 160.738 108.064 162.201C107.088 163.665 96.3562 165.372 96.1123 161.713C95.8684 158.055 107.82 151.226 107.82 151.226L109.376 148.719L115.381 149.274Z" fill="#2F2E41"/>
<path d="M154.893 156.592C154.893 156.592 159.771 166.592 156.356 167.811C152.942 169.031 148.551 168.055 147.576 169.518C146.6 170.982 135.868 172.689 135.625 169.031C135.381 165.372 147.332 158.543 147.332 158.543L148.889 156.036L154.893 156.592Z" fill="#2F2E41"/>
<path d="M132.332 31.1037C136.777 31.1037 140.381 27.5001 140.381 23.0549C140.381 18.6097 136.777 15.0061 132.332 15.0061C127.887 15.0061 124.283 18.6097 124.283 23.0549C124.283 27.5001 127.887 31.1037 132.332 31.1037Z" fill="#A0616A"/>
<path d="M137.82 27.3232L136.844 34.3964L129.527 40.0062L127.576 37.3233V28.055L137.82 27.3232Z" fill="#A0616A"/>
<path d="M126.356 36.3477C126.356 36.3477 133.917 37.0794 137.82 34.3965L145.624 80.4941C145.624 80.4941 118.064 82.6892 116.844 81.2258V66.8355L121.722 43.4209L126.356 36.3477Z" fill="#3F3D56"/>
<path d="M137.148 32.1924L139.771 34.3963C139.771 34.3963 150.503 36.1037 149.771 39.0305L146.844 73.6646L147.82 85.372C147.82 85.372 139.527 83.1768 133.185 85.372C126.844 87.5671 131.882 38.2004 131.882 38.2004C131.882 38.2004 137.696 32.9153 137.148 32.1924Z" fill="#D0CDE1"/>
<path d="M127.576 34.8621C127.576 34.8621 119.771 40.4939 118.795 44.1524C117.82 47.811 114.649 86.3476 114.649 86.3476C114.649 86.3476 116.112 85.6158 116.844 86.8354C117.576 88.0549 128.795 36.7912 127.576 34.8621Z" fill="#D0CDE1"/>
<path d="M124.287 22.7044C124.287 22.7044 123.416 21.3974 123.751 19.9898C123.951 19.1907 124.03 18.366 123.986 17.5434C123.986 17.5434 124.689 15.2645 125.393 13.9911C126.097 12.7176 125.762 12.1814 127.974 11.7792C130.186 11.3771 129.281 8.49497 135.112 11.6117C135.309 11.8863 135.582 12.0966 135.898 12.2159C136.215 12.3352 136.559 12.3581 136.888 12.2819C138.094 12.0473 138.53 13.7229 138.53 13.7229C138.53 13.7229 139.334 13.2538 139.636 13.924C139.938 14.5943 142.088 13.5217 142.088 18.046C142.088 22.5702 139.641 26.6115 139.641 26.6115C139.641 26.6115 139.82 19.0012 135.832 18.2304C131.844 17.4596 127.555 15.2143 126.516 18.0964C125.955 19.7139 125.207 21.2604 124.287 22.7044Z" fill="#2F2E41"/>
<path d="M139.728 24.5137C140.162 24.5137 140.515 24.0441 140.515 23.4649C140.515 22.8856 140.162 22.416 139.728 22.416C139.294 22.416 138.941 22.8856 138.941 23.4649C138.941 24.0441 139.294 24.5137 139.728 24.5137Z" fill="#A0616A"/>
<path d="M106.671 98.8903C104.741 97.7297 102.414 97.8183 101.529 97.907C101.866 98.7295 102.877 100.827 104.807 101.989C106.742 103.152 109.066 103.061 109.949 102.973C109.612 102.151 108.601 100.052 106.671 98.8903Z" fill="#D0CDE1"/>
<path d="M115.74 121.92H103.678C102.958 121.92 102.268 122.206 101.759 122.715C101.25 123.224 100.964 123.915 100.964 124.634C100.964 125.354 101.25 126.045 101.759 126.554C102.268 127.063 102.958 127.348 103.678 127.348H115.74C116.459 127.348 117.149 127.062 117.658 126.553C118.166 126.044 118.452 125.354 118.452 124.634C118.452 123.915 118.166 123.225 117.658 122.716C117.149 122.207 116.459 121.921 115.74 121.92Z" fill="#D0CDE1"/>
<path d="M170.363 93.2721H102.733C101.946 93.2721 101.167 93.427 100.44 93.7281C99.7131 94.0292 99.0527 94.4705 98.4964 95.0268C97.9401 95.5831 97.4988 96.2435 97.1977 96.9703C96.8967 97.6972 96.7417 98.4762 96.7417 99.2629V132.214C96.7417 133.803 97.3729 135.326 98.4964 136.45C99.6199 137.573 101.144 138.205 102.733 138.205H170.363C171.15 138.205 171.929 138.05 172.656 137.749C173.382 137.448 174.043 137.006 174.599 136.45C175.155 135.894 175.597 135.233 175.898 134.506C176.199 133.78 176.354 133.001 176.354 132.214V99.2629C176.354 98.4762 176.199 97.6972 175.898 96.9703C175.597 96.2435 175.155 95.5831 174.599 95.0268C174.043 94.4705 173.382 94.0292 172.656 93.7281C171.929 93.4271 171.15 93.2721 170.363 93.2721ZM101.059 97.3588C101.193 97.3346 104.36 96.7957 106.982 98.3736C109.604 99.9512 110.612 103.002 110.653 103.131L110.759 103.46L110.419 103.52C109.933 103.596 109.443 103.632 108.951 103.628C107.76 103.628 106.035 103.431 104.496 102.505C101.874 100.928 100.867 97.8771 100.825 97.7481L100.719 97.4191L101.059 97.3588ZM115.74 127.952H103.678C102.798 127.952 101.954 127.602 101.332 126.98C100.71 126.358 100.36 125.514 100.36 124.634C100.36 123.755 100.71 122.911 101.332 122.289C101.954 121.667 102.798 121.317 103.678 121.317H115.74C116.62 121.317 117.464 121.667 118.086 122.289C118.708 122.911 119.057 123.755 119.057 124.634C119.057 125.514 118.708 126.358 118.086 126.98C117.464 127.602 116.62 127.952 115.74 127.952ZM170.624 127.348C170.621 128.307 170.239 129.226 169.561 129.904C168.883 130.582 167.964 130.964 167.005 130.967H157.959C157 130.964 156.081 130.582 155.403 129.904C154.725 129.226 154.343 128.307 154.34 127.348V121.92C154.343 120.962 154.725 120.043 155.403 119.365C156.081 118.687 157 118.304 157.959 118.302H167.005C167.964 118.304 168.883 118.687 169.561 119.365C170.239 120.043 170.621 120.962 170.624 121.92L170.624 127.348Z" fill="#D0CDE1"/>
<path d="M160.823 126.293H156.903C156.623 126.293 156.355 126.404 156.157 126.602C155.959 126.8 155.848 127.069 155.848 127.349C155.848 127.628 155.959 127.897 156.157 128.095C156.355 128.293 156.623 128.404 156.903 128.404H160.823C161.103 128.404 161.372 128.293 161.57 128.095C161.768 127.897 161.879 127.628 161.879 127.349C161.879 127.069 161.768 126.8 161.57 126.602C161.372 126.404 161.103 126.293 160.823 126.293ZM160.823 127.801H156.903C156.844 127.801 156.785 127.789 156.73 127.767C156.675 127.744 156.625 127.711 156.583 127.669C156.54 127.627 156.507 127.577 156.484 127.522C156.461 127.467 156.45 127.408 156.45 127.349C156.45 127.289 156.461 127.23 156.484 127.175C156.507 127.12 156.54 127.07 156.583 127.028C156.625 126.986 156.675 126.953 156.73 126.93C156.785 126.908 156.844 126.896 156.903 126.896H160.823C160.883 126.896 160.942 126.908 160.997 126.93C161.052 126.953 161.102 126.986 161.144 127.028C161.186 127.07 161.219 127.12 161.242 127.175C161.265 127.23 161.277 127.289 161.277 127.349C161.277 127.408 161.265 127.467 161.242 127.522C161.219 127.577 161.186 127.627 161.144 127.669C161.102 127.711 161.052 127.744 160.997 127.767C160.942 127.789 160.883 127.801 160.823 127.801Z" fill="#D0CDE1"/>
<path d="M168.061 126.293H164.141C164.002 126.293 163.864 126.32 163.736 126.373C163.608 126.426 163.491 126.504 163.393 126.602C163.295 126.7 163.217 126.816 163.164 126.944C163.111 127.072 163.083 127.21 163.083 127.349C163.083 127.487 163.111 127.625 163.164 127.753C163.217 127.881 163.295 127.997 163.393 128.095C163.491 128.193 163.608 128.271 163.736 128.324C163.864 128.377 164.002 128.404 164.141 128.404H168.061C168.341 128.404 168.609 128.293 168.807 128.095C169.005 127.897 169.116 127.628 169.116 127.349C169.116 127.069 169.005 126.8 168.807 126.602C168.609 126.404 168.341 126.293 168.061 126.293ZM168.061 127.801H164.141C164.081 127.801 164.022 127.789 163.967 127.767C163.912 127.744 163.862 127.711 163.82 127.669C163.778 127.627 163.745 127.577 163.722 127.522C163.699 127.467 163.687 127.408 163.687 127.349C163.687 127.289 163.699 127.23 163.722 127.175C163.745 127.12 163.778 127.07 163.82 127.028C163.862 126.986 163.912 126.953 163.967 126.93C164.022 126.908 164.081 126.896 164.141 126.896H168.061C168.181 126.897 168.295 126.944 168.38 127.029C168.465 127.114 168.512 127.229 168.512 127.349C168.512 127.468 168.465 127.583 168.38 127.668C168.295 127.753 168.181 127.801 168.061 127.801Z" fill="#D0CDE1"/>
<path d="M160.823 123.579H156.903C156.623 123.579 156.355 123.69 156.157 123.888C155.959 124.086 155.848 124.355 155.848 124.634C155.848 124.914 155.959 125.183 156.157 125.381C156.355 125.579 156.623 125.69 156.903 125.69H160.823C160.962 125.69 161.1 125.663 161.228 125.61C161.356 125.557 161.473 125.479 161.571 125.381C161.669 125.283 161.747 125.167 161.8 125.039C161.853 124.911 161.88 124.773 161.88 124.634C161.88 124.496 161.853 124.358 161.8 124.23C161.747 124.102 161.669 123.986 161.571 123.888C161.473 123.79 161.356 123.712 161.228 123.659C161.1 123.606 160.962 123.579 160.823 123.579ZM160.823 125.087H156.903C156.783 125.087 156.668 125.039 156.583 124.954C156.498 124.869 156.451 124.754 156.451 124.634C156.451 124.514 156.498 124.399 156.583 124.315C156.668 124.23 156.783 124.182 156.903 124.182H160.823C160.943 124.182 161.058 124.23 161.143 124.315C161.228 124.399 161.276 124.514 161.276 124.634C161.276 124.754 161.228 124.869 161.143 124.954C161.058 125.039 160.943 125.087 160.823 125.087Z" fill="#D0CDE1"/>
<path d="M168.061 123.579H164.141C164.002 123.579 163.864 123.606 163.736 123.659C163.608 123.712 163.491 123.79 163.393 123.888C163.295 123.986 163.217 124.102 163.164 124.23C163.111 124.358 163.083 124.496 163.083 124.634C163.083 124.773 163.111 124.911 163.164 125.039C163.217 125.167 163.295 125.283 163.393 125.381C163.491 125.479 163.608 125.557 163.736 125.61C163.864 125.663 164.002 125.69 164.141 125.69H168.061C168.341 125.69 168.609 125.579 168.807 125.381C169.005 125.183 169.116 124.914 169.116 124.634C169.116 124.355 169.005 124.086 168.807 123.888C168.609 123.69 168.341 123.579 168.061 123.579ZM168.061 125.087H164.141C164.021 125.087 163.906 125.039 163.821 124.954C163.736 124.869 163.688 124.754 163.688 124.634C163.688 124.514 163.736 124.399 163.821 124.315C163.906 124.23 164.021 124.182 164.141 124.182H168.061C168.181 124.182 168.296 124.23 168.381 124.315C168.466 124.399 168.513 124.514 168.513 124.634C168.513 124.754 168.466 124.869 168.381 124.954C168.296 125.039 168.181 125.087 168.061 125.087Z" fill="#D0CDE1"/>
<path d="M160.823 120.865H156.903C156.623 120.865 156.355 120.976 156.157 121.174C155.959 121.372 155.848 121.641 155.848 121.92C155.848 122.2 155.959 122.469 156.157 122.667C156.355 122.865 156.623 122.976 156.903 122.976H160.823C161.103 122.976 161.372 122.865 161.57 122.667C161.768 122.469 161.879 122.2 161.879 121.92C161.879 121.641 161.768 121.372 161.57 121.174C161.372 120.976 161.103 120.865 160.823 120.865ZM160.823 122.373H156.903C156.783 122.373 156.668 122.325 156.583 122.24C156.498 122.155 156.451 122.04 156.451 121.92C156.451 121.8 156.498 121.685 156.583 121.601C156.668 121.516 156.783 121.468 156.903 121.468H160.823C160.943 121.468 161.058 121.516 161.143 121.601C161.228 121.685 161.276 121.8 161.276 121.92C161.276 122.04 161.228 122.155 161.143 122.24C161.058 122.325 160.943 122.373 160.823 122.373Z" fill="#D0CDE1"/>
<path d="M168.061 120.865H164.141C164.002 120.865 163.864 120.892 163.736 120.945C163.608 120.998 163.491 121.076 163.393 121.174C163.295 121.272 163.217 121.388 163.164 121.516C163.111 121.644 163.083 121.782 163.083 121.92C163.083 122.059 163.111 122.197 163.164 122.325C163.217 122.453 163.295 122.569 163.393 122.667C163.491 122.765 163.608 122.843 163.736 122.896C163.864 122.949 164.002 122.976 164.141 122.976H168.061C168.341 122.976 168.609 122.864 168.806 122.666C169.004 122.468 169.115 122.2 169.115 121.92C169.115 121.641 169.004 121.373 168.806 121.175C168.609 120.977 168.341 120.865 168.061 120.865ZM168.061 122.373H164.141C164.021 122.373 163.906 122.325 163.821 122.24C163.736 122.155 163.688 122.04 163.688 121.92C163.688 121.8 163.736 121.685 163.821 121.601C163.906 121.516 164.021 121.468 164.141 121.468H168.061C168.181 121.468 168.296 121.516 168.381 121.601C168.466 121.685 168.513 121.8 168.513 121.92C168.513 122.04 168.466 122.155 168.381 122.24C168.296 122.325 168.181 122.373 168.061 122.373Z" fill="#D0CDE1"/>
<path d="M149.04 85.8598L147.291 91.565C147.291 91.565 146.844 102.201 140.991 100.738C135.137 99.2744 142.698 86.8354 142.698 86.8354L144.405 84.1525L149.04 85.8598Z" fill="#A0616A"/>
<path d="M115.869 85.8598L114.12 91.565C114.12 91.565 113.674 102.201 107.82 100.738C101.966 99.2744 109.527 86.8354 109.527 86.8354L111.234 84.1525L115.869 85.8598Z" fill="#A0616A"/>
<path d="M147.82 37.3232C147.82 37.3232 151.722 36.3476 152.942 42.9329C154.161 49.5183 155.625 68.2988 155.625 68.2988L149.771 88.0549C149.771 88.0549 143.917 84.8842 142.698 85.372L147.304 68.2206L143.429 50.7378C143.429 50.7378 146.844 37.3232 147.82 37.3232Z" fill="#D0CDE1"/>
<path opacity="0.15" d="M142.146 51.0714L147.267 68.1446L142.146 85.4617L145.072 68.1446L142.146 51.0714Z" fill="black"/>
<path d="M118.795 50.7379L110.015 85.3721C110.015 85.3721 114.646 86.9007 116.354 88.1202L118.795 50.7379Z" fill="#D0CDE1"/>
<path d="M26.6859 137.777C40.1563 137.777 51.0762 126.857 51.0762 113.387C51.0762 99.9161 40.1563 88.9962 26.6859 88.9962C13.2155 88.9962 2.29565 99.9161 2.29565 113.387C2.29565 126.857 13.2155 137.777 26.6859 137.777Z" fill="#3F3D56"/>
<path opacity="0.1" d="M26.6858 134.362C38.2703 134.362 47.6615 124.971 47.6615 113.387C47.6615 101.802 38.2703 92.4109 26.6858 92.4109C15.1013 92.4109 5.71021 101.802 5.71021 113.387C5.71021 124.971 15.1013 134.362 26.6858 134.362Z" fill="black"/>
<path d="M25.6809 125.764V122.711C24.1376 122.681 22.5411 122.137 21.6099 121.381L22.2484 119.356C23.3551 120.185 24.6971 120.64 26.08 120.656C27.9692 120.656 29.2464 119.416 29.2464 117.693C29.2464 116.031 28.2086 115.003 26.2396 114.096C23.5256 112.887 21.8493 111.497 21.8493 108.867C21.8493 106.358 23.4192 104.454 25.8672 104V100.947H27.5168V103.879C28.747 103.896 29.9468 104.263 30.9759 104.937L30.3106 106.932C29.3237 106.257 28.1541 105.898 26.9581 105.905C24.9093 105.905 24.1376 107.295 24.1376 108.504C24.1376 110.076 25.1221 110.862 27.4371 111.95C30.1776 113.22 31.5613 114.791 31.5613 117.482C31.5613 119.87 30.0978 122.107 27.3572 122.62V125.764H25.6809Z" fill="#1E89B7"/>
<path d="M52.4512 162.998C35.2294 165.567 17.7219 165.567 0.5 162.998V157.145C17.7401 159.453 35.2111 159.453 52.4512 157.145V162.998Z" fill="#3F3D56"/>
<path d="M52.4512 153.974C35.2294 156.542 17.7219 156.542 0.5 153.974V148.12C17.7401 150.429 35.2111 150.429 52.4512 148.12V153.974Z" fill="#3F3D56"/>
<path d="M52.4512 144.949C35.2294 147.518 17.7219 147.518 0.5 144.949V139.096C17.7401 141.405 35.2111 141.405 52.4512 139.096V144.949Z" fill="#3F3D56"/>
</g>
<defs>
<clipPath id="clip0">
<rect width="220" height="171.221" fill="white" transform="translate(0.5)"/>
</clipPath>
</defs>
</svg>
