<svg xmlns="http://www.w3.org/2000/svg" viewBox="0 0 318.78 86.61"><defs><style>.cls-1{fill:#fff;}.cls-2{fill:none;stroke:#fff;stroke-miterlimit:10;stroke-width:3px;}</style></defs><title>logo-orbe-ecom</title><g id="Layer_2" data-name="Layer 2"><g id="Layer_1-2" data-name="Layer 1"><g id="Layer_2-2" data-name="Layer 2"><g id="Layer_1-2-2" data-name="Layer 1-2"><path class="cls-1" d="M245.44,41.11a5,5,0,0,0-1.63-1.45,5.44,5.44,0,0,0-2.63-.58H222.11a5.47,5.47,0,0,0-2.63.58,4.93,4.93,0,0,0-1.6,1.45,4.72,4.72,0,0,0-.8,1.87,8.84,8.84,0,0,0-.23,1.85,9.11,9.11,0,0,0,.23,1.87,4.68,4.68,0,0,0,.8,1.86,4.79,4.79,0,0,0,1.6,1.44,5.34,5.34,0,0,0,2.63.59h19.07a5.34,5.34,0,0,0,2.63-.59,4.89,4.89,0,0,0,1.63-1.44,5.05,5.05,0,0,0,.8-1.86,8.44,8.44,0,0,0,.21-1.87,8.27,8.27,0,0,0-.21-1.85A5.1,5.1,0,0,0,245.44,41.11Z"/><path class="cls-1" d="M303,19.64H122.88A15.77,15.77,0,0,0,107.1,35.42V51.19A15.77,15.77,0,0,0,122.88,67H303a15.78,15.78,0,0,0,15.78-15.78V35.42A15.78,15.78,0,0,0,303,19.64ZM126.5,36.81a2.26,2.26,0,0,1,2.24-2.26h33.49a2.24,2.24,0,0,1,2.26,2.23v0a2.22,2.22,0,0,1-.61,1.6,2.16,2.16,0,0,1-1.6.67H128.82a2.26,2.26,0,0,1-2.32-2.2Zm37.38,17.75v-.09a2.27,2.27,0,0,1-1.6.66h-30a5.29,5.29,0,0,1-2.08-.45,5.94,5.94,0,0,1-1.84-1.25,6.78,6.78,0,0,1-1.32-2,6.12,6.12,0,0,1-.51-2.53V44.7a1.82,1.82,0,0,1,.72-1.71,4.77,4.77,0,0,1,2.29-.42h31.67a2.25,2.25,0,0,1,2.25,2.25v0a2.26,2.26,0,0,1-2.25,2.27H131.08v2.32a1,1,0,0,0,.41.81,1.51,1.51,0,0,0,1.06.36h29.73a2.27,2.27,0,0,1,1.6,3.94Zm41.86.57H177.46a6.42,6.42,0,0,1-3.44-1,8.85,8.85,0,0,1-2.56-2.43,11.42,11.42,0,0,1-1.57-3.33,11.81,11.81,0,0,1-.56-3.59,11.32,11.32,0,0,1,.59-3.6,10.83,10.83,0,0,1,1.72-3.3,9.19,9.19,0,0,1,2.73-2.43,6.94,6.94,0,0,1,3.63-1h27.39a2.23,2.23,0,0,1,1.62.66,2.27,2.27,0,0,1,0,3.21,2.23,2.23,0,0,1-1.61.66H178.94a5.44,5.44,0,0,0-2.63.58,4.87,4.87,0,0,0-1.61,1.45,5.1,5.1,0,0,0-.8,1.87,9.62,9.62,0,0,0-.21,1.85,8.38,8.38,0,0,0,.15,1.87,4.89,4.89,0,0,0,.8,1.86,4.79,4.79,0,0,0,1.6,1.44,5.34,5.34,0,0,0,2.63.59h26.52a2.28,2.28,0,0,1,.35,4.54Zm44.6-6.64-.12,0a11,11,0,0,1-1.72,3.3,9.33,9.33,0,0,1-2.73,2.43,7,7,0,0,1-3.63,1h-21.5a7.06,7.06,0,0,1-3.42-1.07,9.38,9.38,0,0,1-2.63-2.43A11.27,11.27,0,0,1,213,48.38a11.5,11.5,0,0,1,0-7.15,10.86,10.86,0,0,1,1.73-3.3,9.11,9.11,0,0,1,2.74-2.43,6.9,6.9,0,0,1,3.63-1H242.6a7,7,0,0,1,3.55,1.1,9.29,9.29,0,0,1,2.56,2.44,11,11,0,0,1,1.63,3.24A11.39,11.39,0,0,1,250.34,48.49Zm44.36,6a2.27,2.27,0,0,1-3.94-1.62V42.57c0-1.32,0-1.93-.23-1.93s-.57.42-1.31,1.31L278.83,53.78a3.73,3.73,0,0,1-1.5,1.07,5.49,5.49,0,0,1-3.87,0,4,4,0,0,1-1.52-1.07L261.57,42c-.72-.85-1.17-1.31-1.31-1.31s-.24.64-.24,1.93V52.85a2.28,2.28,0,0,1-2.28,2.27,2.34,2.34,0,0,1-1.59-.65,2.27,2.27,0,0,1-.65-1.62V39.08a4.82,4.82,0,0,1,1.07-3.2,4,4,0,0,1,5-.77,8.39,8.39,0,0,1,1.65,1.32L274.15,48.8a5.57,5.57,0,0,0,.59.5,1.15,1.15,0,0,0,1.46,0,5.68,5.68,0,0,0,.6-.5l10.8-12.36A5.38,5.38,0,0,1,289.22,35a4.22,4.22,0,0,1,2.06-.51,3.72,3.72,0,0,1,3,1.31A4.93,4.93,0,0,1,295.35,39V52.85A2.23,2.23,0,0,1,294.7,54.47Z"/><path class="cls-2" d="M85.11,43.31A41.81,41.81,0,1,1,43.31,1.5,41.81,41.81,0,0,1,85.11,43.31Z"/><path class="cls-1" d="M43.39,79.51a34.81,34.81,0,0,0,25-10.72A36,36,0,0,0,79.26,43.31a32.85,32.85,0,0,0-8.34-23.53L20,70.63A33,33,0,0,0,43.39,79.51Z"/></g></g></g></g></svg>