<?xml version="1.0" encoding="UTF-8"?>
<svg xmlns="http://www.w3.org/2000/svg" xmlns:xlink="http://www.w3.org/1999/xlink" width="53pt" height="30pt" viewBox="0 0 53 30" version="1.1">
<g id="surface1">
<path style=" stroke:none;fill-rule:evenodd;fill:rgb(18.039216%,20%,25.490196%);fill-opacity:1;" d="M 3.53125 0 L 49.449219 0 C 51.398438 0 52.980469 1.582031 52.980469 3.53125 L 52.980469 25.902344 C 52.980469 27.851562 51.398438 29.433594 49.449219 29.433594 L 3.53125 29.433594 C 1.582031 29.433594 0 27.851562 0 25.902344 L 0 3.53125 C 0 1.582031 1.582031 0 3.53125 0 Z M 3.53125 0 "/>
<path style=" stroke:none;fill-rule:nonzero;fill:rgb(100%,37.254902%,0%);fill-opacity:1;" d="M 22.40625 8.863281 L 30.261719 8.863281 L 30.261719 22.332031 L 22.40625 22.332031 Z M 22.40625 8.863281 "/>
<path style=" stroke:none;fill-rule:nonzero;fill:rgb(92.156863%,0%,10.588235%);fill-opacity:1;" d="M 23.265625 15.339844 C 23.265625 12.609375 24.578125 10.1875 26.59375 8.621094 C 25.113281 7.480469 23.242188 6.792969 21.199219 6.792969 C 16.363281 6.792969 12.453125 10.613281 12.453125 15.339844 C 12.453125 20.066406 16.363281 23.886719 21.199219 23.886719 C 23.242188 23.886719 25.113281 23.199219 26.59375 22.058594 C 24.578125 20.515625 23.265625 18.070312 23.265625 15.339844 Z M 23.265625 15.339844 "/>
<path style=" stroke:none;fill-rule:nonzero;fill:rgb(96.862745%,61.960784%,10.588235%);fill-opacity:1;" d="M 40.738281 15.339844 C 40.738281 20.066406 36.824219 23.886719 31.988281 23.886719 C 29.949219 23.886719 28.078125 23.199219 26.59375 22.058594 C 28.636719 20.492188 29.925781 18.070312 29.925781 15.339844 C 29.925781 12.609375 28.613281 10.1875 26.59375 8.621094 C 28.078125 7.480469 29.949219 6.792969 31.988281 6.792969 C 36.824219 6.792969 40.738281 10.640625 40.738281 15.339844 Z M 40.738281 15.339844 "/>
</g>
</svg>
