<svg xmlns="http://www.w3.org/2000/svg" viewBox="0 0 549.24 70.27"><defs><style>.cls-1{fill:#1fdfff;}.cls-2{fill:#fff;}</style></defs><title>logoo</title><g id="Layer_2" data-name="Layer 2"><g id="Layer_1-2" data-name="Layer 1"><path class="cls-1" d="M493.46,31.15a3.71,3.71,0,0,0-1.24-1.1,4,4,0,0,0-2-.44h-14.5a4,4,0,0,0-2,.44,3.63,3.63,0,0,0-1.22,1.1,3.67,3.67,0,0,0-.61,1.42,6.75,6.75,0,0,0-.17,1.41,6.84,6.84,0,0,0,.17,1.42,3.67,3.67,0,0,0,.61,1.42,3.61,3.61,0,0,0,1.22,1.09,4,4,0,0,0,2,.45h14.5a4,4,0,0,0,2-.45,3.68,3.68,0,0,0,1.24-1.09,3.83,3.83,0,0,0,.61-1.42,6.79,6.79,0,0,0,.16-1.42,6.7,6.7,0,0,0-.16-1.41A3.83,3.83,0,0,0,493.46,31.15Z"/><path class="cls-1" d="M537.24,14.82h-137a12,12,0,0,0-12,12v12a12,12,0,0,0,12,12h137a12,12,0,0,0,12-12v-12A12,12,0,0,0,537.24,14.82ZM431.43,41.31a1.7,1.7,0,0,1-1.22.5H407.42a4,4,0,0,1-1.58-.34,4.51,4.51,0,0,1-1.4-.95,5.1,5.1,0,0,1-1-1.48,4.62,4.62,0,0,1-.39-1.93V33.88a1.38,1.38,0,0,1,.55-1.3,3.66,3.66,0,0,1,1.74-.32h24.09A1.71,1.71,0,0,1,431.14,34a1.72,1.72,0,0,1-1.72,1.73H406.48v1.76a.8.8,0,0,0,.31.62,1.17,1.17,0,0,0,.81.27h22.61a1.73,1.73,0,0,1,1.22,3Zm0-12.21a1.67,1.67,0,0,1-1.22.51H404.76A1.72,1.72,0,0,1,403,27.88a1.71,1.71,0,0,1,1.72-1.72h25.45a1.71,1.71,0,0,1,1.72,1.72A1.67,1.67,0,0,1,431.43,29.1ZM439,35.4a3.83,3.83,0,0,0,.61,1.42,3.7,3.7,0,0,0,1.22,1.09,4,4,0,0,0,2,.45H463a1.73,1.73,0,1,1,0,3.45H441.76a4.84,4.84,0,0,1-2.62-.72,6.73,6.73,0,0,1-1.95-1.85A8.77,8.77,0,0,1,436,36.71a9.13,9.13,0,0,1-.43-2.73,8.78,8.78,0,0,1,.45-2.74,8.24,8.24,0,0,1,1.31-2.51,7,7,0,0,1,2.08-1.85,5.31,5.31,0,0,1,2.76-.72H463a1.71,1.71,0,0,1,1.23.5A1.73,1.73,0,0,1,463,29.61H442.88a4,4,0,0,0-2,.44,3.73,3.73,0,0,0-1.22,1.1,3.83,3.83,0,0,0-.61,1.42,6.7,6.7,0,0,0-.16,1.41A6.79,6.79,0,0,0,439,35.4Zm58.1,1.33a8.24,8.24,0,0,1-1.31,2.51,7.07,7.07,0,0,1-2.08,1.85,5.31,5.31,0,0,1-2.76.72H474.6A5.29,5.29,0,0,1,472,41a7,7,0,0,1-2-1.85,8.43,8.43,0,0,1-1.24-2.47,8.85,8.85,0,0,1-.43-2.7,9.07,9.07,0,0,1,.44-2.74,8.26,8.26,0,0,1,1.32-2.51,7,7,0,0,1,2.08-1.85,5.31,5.31,0,0,1,2.76-.72h16.37A5.29,5.29,0,0,1,494,27a7.15,7.15,0,0,1,1.95,1.85,8.55,8.55,0,0,1,1.24,2.47,8.63,8.63,0,0,1,0,5.44Zm34.33,3.35a1.71,1.71,0,0,1-.5,1.23,1.73,1.73,0,0,1-3-1.23V32.26c0-1,0-1.47-.17-1.47s-.44.32-1,1l-7.9,9a2.9,2.9,0,0,1-1.14.81,4.16,4.16,0,0,1-2.95,0,3,3,0,0,1-1.15-.81l-7.89-9c-.55-.65-.89-1-1-1s-.18.49-.18,1.47v7.82a1.73,1.73,0,0,1-2.94,1.23,1.71,1.71,0,0,1-.5-1.23V29.61a3.69,3.69,0,0,1,.82-2.44,3,3,0,0,1,3.81-.58,6.46,6.46,0,0,1,1.25,1L515.3,37a3.71,3.71,0,0,0,.45.38.87.87,0,0,0,1.11,0,3.71,3.71,0,0,0,.45-.38l8.22-9.4h0a4,4,0,0,1,1.23-1.08,3.21,3.21,0,0,1,1.57-.39,2.8,2.8,0,0,1,2.27,1,3.75,3.75,0,0,1,.82,2.44Z"/><path class="cls-2" d="M155.79,10a15.13,15.13,0,0,1,7.57,2.33A21,21,0,0,1,169,17.63a24.72,24.72,0,0,1,3.58,7.15,25,25,0,0,1-.05,15.71,24.29,24.29,0,0,1-3.79,7.26,20.59,20.59,0,0,1-6,5.34,15.41,15.41,0,0,1-8,2.08H107.47a15.11,15.11,0,0,1-7.57-2.34,20.65,20.65,0,0,1-5.65-5.34,24.6,24.6,0,0,1-3.58-7.15,25,25,0,0,1,0-15.71,24.41,24.41,0,0,1,3.79-7.26,20.59,20.59,0,0,1,6-5.34,15.47,15.47,0,0,1,8-2.07m49.87,34A10.77,10.77,0,0,0,162,40.75a11.13,11.13,0,0,0,1.76-4.09,20.23,20.23,0,0,0,.47-4.1,20.14,20.14,0,0,0-.47-4.09,11.1,11.1,0,0,0-1.76-4.1,10.75,10.75,0,0,0-3.58-3.16,11.58,11.58,0,0,0-5.8-1.3h-41.9a11.47,11.47,0,0,0-5.85,1.3,10.76,10.76,0,0,0-3.53,3.16,11.1,11.1,0,0,0-1.76,4.1,20.14,20.14,0,0,0-.47,4.09,20.23,20.23,0,0,0,.47,4.1,11.13,11.13,0,0,0,1.76,4.09,10.78,10.78,0,0,0,3.53,3.17,11.58,11.58,0,0,0,5.85,1.29h41.9A11.69,11.69,0,0,0,158.38,43.92Z"/><path class="cls-2" d="M256.57,41.32q2.91,2,5.91,4.41a9.5,9.5,0,0,1,2,1.92,4.07,4.07,0,0,1,.82,2.54,5,5,0,0,1-5,5,5.57,5.57,0,0,1-3.53-1.46q-4.24-3.1-8.71-6a78.55,78.55,0,0,0-9.28-5.18,56.88,56.88,0,0,0-10-3.63A42.71,42.71,0,0,0,218,37.54H197.37a3.76,3.76,0,0,0-2.28,1.24,3.7,3.7,0,0,0-.94,2.59v8.82a4.7,4.7,0,0,1-1.5,3.52,4.92,4.92,0,0,1-7,0,4.77,4.77,0,0,1-1.45-3.52v-10a12.63,12.63,0,0,1,1-4.92,12.94,12.94,0,0,1,2.65-4,12,12,0,0,1,3.94-2.7,12.37,12.37,0,0,1,5-1H251.7a4,4,0,0,0,2.75-1.08,3.71,3.71,0,0,0,0-5.45,3.87,3.87,0,0,0-2.75-1.14H189.18a5,5,0,0,1-5-5,5,5,0,0,1,5-5h62.11a13.59,13.59,0,0,1,5.44,1.09A14.57,14.57,0,0,1,261.19,14a13.78,13.78,0,0,1,3,4.36,13.34,13.34,0,0,1,1.08,5.39,13.41,13.41,0,0,1-1.08,5.39,13.62,13.62,0,0,1-3,4.35,14.59,14.59,0,0,1-4.46,3,13.59,13.59,0,0,1-5.44,1.09h-.42C252.74,38.71,254.64,40,256.57,41.32Z"/><path class="cls-2" d="M275.65,14.93a5,5,0,0,1,5-5h62.11a13.59,13.59,0,0,1,5.44,1.09A14.45,14.45,0,0,1,352.64,14a13.66,13.66,0,0,1,4.1,9.85,13.11,13.11,0,0,1-.88,4.82,14.86,14.86,0,0,1-2.34,4,14.65,14.65,0,0,1,2.34,4,12.84,12.84,0,0,1,.88,4.71,13.26,13.26,0,0,1-1.09,5.4,13.62,13.62,0,0,1-3,4.35,14.48,14.48,0,0,1-4.46,3,13.76,13.76,0,0,1-5.44,1.09H288.3a11.37,11.37,0,0,1-4.56-1,12.82,12.82,0,0,1-4-2.75,14.3,14.3,0,0,1-2.91-4.25,13.28,13.28,0,0,1-1.14-5.6V32.25c0-1.87.54-3.11,1.61-3.73a10.28,10.28,0,0,1,5-.94h61a3.87,3.87,0,0,0,2.69-1,3.48,3.48,0,0,0,1.14-2.7,4.07,4.07,0,0,0-3.94-3.94H280.63a5,5,0,0,1-5-5Zm67.5,30.28a3.85,3.85,0,0,0,2.75-1.14,3.59,3.59,0,0,0,1.19-2.7,3.53,3.53,0,0,0-1.19-2.74,3.93,3.93,0,0,0-2.75-1.09H285.61v5.08a2.33,2.33,0,0,0,.88,1.81,3.37,3.37,0,0,0,2.33.78Z"/><path class="cls-2" d="M375.61,53.71a5,5,0,0,1-8.5-3.52V14.93a5,5,0,1,1,9.95,0V50.19A4.77,4.77,0,0,1,375.61,53.71Z"/><path class="cls-2" d="M10.09,59.84A33.51,33.51,0,0,1,0,35.21,33.51,33.51,0,0,1,10.09,10.58,34.43,34.43,0,0,1,35,0,33.47,33.47,0,0,1,59.83,10.29a34.3,34.3,0,0,1,10.54,25A33.58,33.58,0,0,1,60.13,60a33.83,33.83,0,0,1-25,10.24A34.33,34.33,0,0,1,10.09,59.84Zm47.57-47a30.39,30.39,0,0,0-22.4-9.31A30.74,30.74,0,0,0,12.86,13a30.7,30.7,0,0,0-9.41,22.4,30.23,30.23,0,0,0,9.21,22.3,30.36,30.36,0,0,0,22.4,9.21,30.72,30.72,0,0,0,22.4-9.31,30.69,30.69,0,0,0,9.4-22.4A30.22,30.22,0,0,0,57.66,12.86Z"/><path class="cls-1" d="M34.37,61.76a26.48,26.48,0,0,0,19-8.16,27.33,27.33,0,0,0,8.28-19.38,25,25,0,0,0-6.34-17.89L16.6,55A25.12,25.12,0,0,0,34.37,61.76Z"/></g></g></svg>