<?xml version="1.0" encoding="utf-8"?><!-- Generator: Adobe Illustrator 18.1.1, SVG Export Plug-In . SVG Version: 6.00 Build 0)  --><svg version="1.1" id="Layer_1" xmlns="http://www.w3.org/2000/svg" xmlns:xlink="http://www.w3.org/1999/xlink" x="0px" y="0px" viewBox="0 0 225.8 68.4" enable-background="new 0 0 225.8 68.4" xml:space="preserve"><g><g><path fill="#02797E" d="M110.7,31c0.6,0.4,1.5,0.7,2.4,0.7c1.4,0,2.2-0.7,2.2-1.8c0-1-0.6-1.5-2-2.1c-1.7-0.6-2.8-1.5-2.8-3c0-1.6,1.4-2.8,3.4-2.8c1.1,0,1.8,0.2,2.3,0.5l-0.4,1.1c-0.3-0.2-1-0.5-2-0.5c-1.4,0-2,0.9-2,1.6c0,1,0.6,1.5,2.1,2c1.8,0.7,2.6,1.5,2.6,3.1c0,1.6-1.2,3-3.6,3c-1,0-2.1-0.3-2.7-0.7L110.7,31"/><path fill="#02797E" d="M119.3,29.1c0,1.8,1.2,2.6,2.6,2.6c1,0,1.6-0.2,2.1-0.4l0.2,1c-0.5,0.2-1.3,0.5-2.5,0.5c-2.3,0-3.7-1.5-3.7-3.8c0-2.3,1.4-4.1,3.5-4.1c2.4,0,3.1,2.2,3.1,3.5c0,0.3,0,0.5,0,0.7L119.3,29.1 M123.3,28.2c0-0.9-0.4-2.2-1.9-2.2c-1.4,0-2,1.3-2.1,2.2H123.3z"/><path fill="#02797E" d="M131.7,32.4c-0.4,0.2-1.2,0.4-2.2,0.4c-2.3,0-3.7-1.5-3.7-3.8c0-2.3,1.6-4,4-4c0.8,0,1.5,0.2,1.9,0.4l-0.3,1c-0.3-0.2-0.8-0.4-1.6-0.4c-1.7,0-2.7,1.3-2.7,2.9c0,1.7,1.1,2.8,2.6,2.8c0.8,0,1.3-0.2,1.7-0.4L131.7,32.4"/><path fill="#02797E" d="M139.5,30.6c0,0.8,0,1.5,0.1,2h-1.2l-0.1-1.2h0c-0.3,0.6-1.2,1.4-2.5,1.4c-1.2,0-2.6-0.7-2.6-3.3v-4.4h1.4v4.1c0,1.4,0.5,2.4,1.7,2.4c0.9,0,1.6-0.6,1.8-1.3c0.1-0.2,0.1-0.4,0.1-0.7v-4.6h1.4V30.6"/><path fill="#02797E" d="M141.8,27.5c0-0.9,0-1.6-0.1-2.3h1.2l0.1,1.5h0c0.3-1,1.2-1.6,2.1-1.6c0.1,0,0.3,0,0.4,0v1.3c-0.2,0-0.3,0-0.5,0c-1,0-1.6,0.7-1.8,1.7c0,0.2,0,0.4,0,0.7v4h-1.4L141.8,27.5"/><path fill="#02797E" d="M147.6,23.8c-0.5,0-0.9-0.4-0.9-0.9c0-0.5,0.4-0.9,0.9-0.9c0.5,0,0.9,0.4,0.9,0.9C148.5,23.4,148.2,23.8,147.6,23.8L147.6,23.8 M148.3,32.7H147v-7.5h1.4V32.7z"/><path fill="#02797E" d="M152.2,23.4v1.8h2v1h-2v4.1c0,0.9,0.3,1.5,1,1.5c0.4,0,0.6,0,0.8-0.1l0.1,1c-0.3,0.1-0.7,0.2-1.2,0.2c-0.6,0-1.1-0.2-1.5-0.6c-0.4-0.4-0.5-1.1-0.5-2v-4.1h-1.2v-1h1.2v-1.4L152.2,23.4"/><path fill="#02797E" d="M156.4,25.2l1.6,4.4c0.2,0.5,0.4,1.1,0.5,1.5h0c0.1-0.4,0.3-1,0.5-1.6l1.5-4.4h1.4l-2.1,5.4c-1,2.6-1.6,3.9-2.6,4.7c-0.7,0.6-1.3,0.8-1.7,0.9l-0.3-1.1c0.3-0.1,0.8-0.3,1.2-0.7c0.4-0.3,0.8-0.8,1.1-1.5c0.1-0.1,0.1-0.2,0.1-0.3c0-0.1,0-0.2-0.1-0.3l-2.8-6.9H156.4"/><path fill="#02797E" d="M110.7,46.5c0.6,0.4,1.5,0.7,2.4,0.7c1.4,0,2.2-0.7,2.2-1.8c0-1-0.6-1.5-2-2.1c-1.7-0.6-2.8-1.5-2.8-3c0-1.6,1.4-2.8,3.4-2.8c1.1,0,1.8,0.2,2.3,0.5l-0.4,1.1c-0.3-0.2-1-0.5-2-0.5c-1.4,0-2,0.9-2,1.6c0,1,0.6,1.5,2.1,2c1.8,0.7,2.6,1.5,2.6,3.1c0,1.6-1.2,3-3.6,3c-1,0-2.1-0.3-2.7-0.7L110.7,46.5"/><path fill="#02797E" d="M120,38.9v1.8h2v1h-2v4c0,0.9,0.3,1.5,1,1.5c0.4,0,0.6,0,0.8-0.1l0.1,1c-0.3,0.1-0.7,0.2-1.2,0.2c-0.6,0-1.1-0.2-1.5-0.6c-0.4-0.4-0.5-1.1-0.5-2v-4.1h-1.2v-1h1.2v-1.4L120,38.9"/><path fill="#02797E" d="M128.8,46.4c0,0.7,0,1.3,0.1,1.8h-1.2l-0.1-0.9h0c-0.4,0.6-1.2,1.1-2.3,1.1c-1.5,0-2.3-1.1-2.3-2.2c0-1.8,1.6-2.8,4.5-2.8v-0.2c0-0.6-0.2-1.8-1.7-1.7c-0.7,0-1.4,0.2-2,0.6l-0.3-0.9c0.6-0.4,1.5-0.6,2.5-0.6c2.3,0,2.9,1.6,2.9,3.1V46.4 M127.5,44.4c-1.5,0-3.2,0.2-3.2,1.7c0,0.9,0.6,1.3,1.3,1.3c1,0,1.6-0.6,1.8-1.3c0-0.1,0.1-0.3,0.1-0.4V44.4z"/><path fill="#02797E" d="M131,42.7c0-0.8,0-1.4-0.1-2h1.2l0.1,1.2h0c0.4-0.7,1.2-1.4,2.5-1.4c1,0,2.7,0.6,2.7,3.2v4.5H136v-4.3c0-1.2-0.5-2.2-1.7-2.2c-0.9,0-1.6,0.6-1.8,1.4c-0.1,0.2-0.1,0.4-0.1,0.6v4.5H131V42.7"/><path fill="#02797E" d="M146.1,37.2v9.1c0,0.7,0,1.4,0.1,1.9h-1.2l-0.1-1.3h0c-0.4,0.8-1.3,1.5-2.5,1.5c-1.8,0-3.2-1.5-3.2-3.8c0-2.5,1.6-4,3.4-4c1.2,0,1.9,0.5,2.3,1.1h0v-4.5H146.1 M144.7,43.7c0-0.2,0-0.4-0.1-0.6c-0.2-0.9-0.9-1.6-2-1.6c-1.4,0-2.3,1.2-2.3,2.9c0,1.5,0.8,2.8,2.2,2.8c0.9,0,1.7-0.6,2-1.6c0.1-0.2,0.1-0.4,0.1-0.6V43.7z"/><path fill="#02797E" d="M153.7,46.4c0,0.7,0,1.3,0.1,1.8h-1.2l-0.1-0.9h0c-0.4,0.6-1.2,1.1-2.3,1.1c-1.5,0-2.3-1.1-2.3-2.2c0-1.8,1.6-2.8,4.5-2.8v-0.2c0-0.6-0.2-1.8-1.7-1.7c-0.7,0-1.4,0.2-2,0.6l-0.3-0.9c0.6-0.4,1.5-0.6,2.5-0.6c2.3,0,2.9,1.6,2.9,3.1V46.4 M152.3,44.4c-1.5,0-3.2,0.2-3.2,1.7c0,0.9,0.6,1.3,1.3,1.3c1,0,1.6-0.6,1.8-1.3c0-0.1,0.1-0.3,0.1-0.4V44.4z"/><path fill="#02797E" d="M155.9,43c0-0.9,0-1.6-0.1-2.3h1.2l0.1,1.5h0.1c0.3-1,1.2-1.6,2.1-1.6c0.1,0,0.2,0,0.4,0v1.3c-0.2,0-0.3,0-0.5,0c-1,0-1.6,0.7-1.8,1.7c0,0.2,0,0.4,0,0.7v4h-1.4L155.9,43"/><path fill="#02797E" d="M167.3,37.2v9.1c0,0.7,0,1.4,0.1,1.9h-1.2l-0.1-1.3h0c-0.4,0.8-1.3,1.5-2.6,1.5c-1.8,0-3.2-1.5-3.2-3.8c0-2.5,1.5-4,3.4-4c1.2,0,1.9,0.5,2.3,1.1h0v-4.5H167.3 M166,43.7c0-0.2,0-0.4-0.1-0.6c-0.2-0.9-1-1.6-2-1.6c-1.4,0-2.2,1.2-2.2,2.9c0,1.5,0.8,2.8,2.2,2.8c0.9,0,1.8-0.6,2-1.6c0-0.2,0.1-0.4,0.1-0.6V43.7z"/><path fill="#02797E" d="M169.4,46.8c0.4,0.3,1.1,0.5,1.8,0.5c1,0,1.4-0.5,1.4-1.1c0-0.7-0.4-1-1.4-1.4c-1.4-0.5-2-1.2-2-2.1c0-1.2,1-2.2,2.6-2.2c0.8,0,1.4,0.2,1.8,0.5l-0.3,1c-0.3-0.2-0.8-0.4-1.5-0.4c-0.8,0-1.2,0.5-1.2,1c0,0.6,0.4,0.9,1.4,1.3c1.3,0.5,2,1.1,2,2.3c0,1.3-1,2.3-2.8,2.3c-0.8,0-1.6-0.2-2.1-0.5L169.4,46.8"/><path fill="#02797E" d="M186.4,47.9c-0.5,0.2-1.5,0.5-2.8,0.5c-2.9,0-5.2-1.9-5.2-5.3c0-3.3,2.2-5.5,5.5-5.5c1.3,0,2.1,0.3,2.5,0.5l-0.3,1.1c-0.5-0.2-1.2-0.4-2.1-0.4c-2.5,0-4.1,1.6-4.1,4.3c0,2.6,1.5,4.2,4,4.2c0.8,0,1.7-0.2,2.2-0.4L186.4,47.9"/><path fill="#02797E" d="M190.9,48.4c-2,0-3.6-1.5-3.6-3.9c0-2.5,1.7-4,3.7-4c2.2,0,3.6,1.6,3.6,3.8C194.6,47.1,192.7,48.4,190.9,48.4L190.9,48.4 M190.9,47.3c1.3,0,2.3-1.2,2.3-2.9c0-1.3-0.6-2.9-2.3-2.9c-1.6,0-2.3,1.5-2.3,2.9C188.7,46.1,189.6,47.3,190.9,47.3L190.9,47.3z"/><path fill="#02797E" d="M202.6,46.1c0,0.8,0,1.5,0.1,2h-1.2l-0.1-1.2h0c-0.3,0.6-1.2,1.4-2.5,1.4c-1.2,0-2.6-0.7-2.6-3.3v-4.4h1.4v4.1c0,1.4,0.4,2.4,1.7,2.4c0.9,0,1.5-0.6,1.8-1.3c0.1-0.2,0.1-0.4,0.1-0.7v-4.6h1.4V46.1"/><path fill="#02797E" d="M204.9,42.7c0-0.8,0-1.4-0.1-2h1.2l0.1,1.2h0c0.4-0.7,1.2-1.4,2.5-1.4c1,0,2.7,0.6,2.7,3.2v4.5h-1.4v-4.3c0-1.2-0.5-2.2-1.7-2.2c-0.9,0-1.6,0.6-1.8,1.4c-0.1,0.2-0.1,0.4-0.1,0.6v4.5h-1.4V42.7"/><path fill="#02797E" d="M218.9,47.9c-0.4,0.2-1.1,0.4-2.2,0.4c-2.3,0-3.7-1.5-3.7-3.8c0-2.3,1.6-4,4-4c0.8,0,1.5,0.2,1.9,0.4l-0.3,1c-0.3-0.2-0.8-0.4-1.6-0.4c-1.7,0-2.7,1.3-2.7,2.9c0,1.7,1.1,2.8,2.6,2.8c0.8,0,1.3-0.2,1.7-0.4L218.9,47.9"/><path fill="#02797E" d="M221.1,39.3c-0.5,0-0.9-0.4-0.9-0.9c0-0.5,0.4-0.9,0.9-0.9c0.5,0,0.9,0.4,0.9,0.9C222,38.9,221.7,39.3,221.1,39.3L221.1,39.3 M221.8,48.2h-1.4v-7.5h1.4V48.2z"/><rect x="224.1" y="37.2" fill="#02797E" width="1.4" height="11"/><g><polyline fill="#02797E" points="103.7,43.2 23.4,68.4 0,4.7 84.3,0 103.7,43.2 "/></g><path fill="#FFFFFF" d="M43,30.4c0,1.6-0.4,3-1.1,4.3c-0.7,1.2-1.7,2.3-3,3.1c-1.3,0.8-2.9,1.4-4.7,1.8c-1.8,0.4-3.8,0.6-6.1,0.6h-1.6v8.2H16.1V21.1h12.2c4.6,0,8.2,0.8,10.8,2.3C41.7,24.9,43,27.3,43,30.4 M33,30.5c0-2.4-1.8-3.6-5.3-3.6h-1.3v7.3h1.2c1.7,0,3.1-0.3,4-0.9C32.5,32.8,33,31.8,33,30.5z"/><path fill="#FFFFFF" d="M68.8,48.4c-1.6,0.3-3.4,0.5-5.5,0.5c-2.9,0-5.5-0.3-7.7-1c-2.3-0.7-4.2-1.6-5.8-2.8c-1.6-1.2-2.8-2.7-3.6-4.4c-0.8-1.8-1.2-3.7-1.2-5.8c0-2.1,0.4-4,1.3-5.8c0.9-1.7,2.1-3.2,3.7-4.5c1.6-1.2,3.5-2.2,5.7-2.9c2.2-0.7,4.6-1,7.2-1c2,0,3.9,0.1,5.6,0.4c1.7,0.4,1.7,0.4,3,0.9l0,7.3c-1-0.6-2.2-1.1-3.5-1.4c-1.3-0.4-2.7-0.6-4.1-0.6c-2.4,0-4.3,0.7-5.8,1.9c-1.5,1.3-2.2,3.1-2.2,5.6c0,1.2,0.2,2.3,0.7,3.3c0.5,0.9,1.1,1.7,1.9,2.3c0.8,0.6,1.7,1.1,2.8,1.4c1.1,0.3,2.2,0.5,3.4,0.5c1.2,0,2.5-0.1,3.7-0.4c1.2-0.3,2.5-0.6,3.8-1.2l0,6.9C70.6,48,70.4,48.1,68.8,48.4"/><rect x="76.5" y="21.1" fill="#FFFFFF" width="10.5" height="27.4"/><path fill="#FFFFFF" d="M88.1,12.5c0,1.8-0.6,3.3-1.8,4.3c-1.2,1-2.7,1.6-4.5,1.6c-1.8,0-3.3-0.5-4.5-1.6c-1.2-1-1.8-2.5-1.8-4.3c0-1.9,0.6-3.3,1.8-4.4c1.2-1.1,2.7-1.6,4.5-1.6c1.8,0,3.3,0.5,4.5,1.6C87.5,9.1,88.1,10.6,88.1,12.5"/></g><g><path fill="#02797E" d="M225.8,24.5c0,1.7-1.4,3.1-3.2,3.1c-1.8,0-3.2-1.4-3.2-3.1c0-1.7,1.4-3.1,3.2-3.1C224.4,21.4,225.8,22.8,225.8,24.5z M220.4,24.5c0,1.3,1,2.3,2.2,2.3c1.3,0,2.2-1,2.2-2.3c0-1.3-1-2.3-2.3-2.3C221.3,22.2,220.4,23.2,220.4,24.5z M222.2,26h-0.9v-2.9c0.2,0,0.7-0.1,1.3-0.1c0.6,0,0.9,0.1,1.1,0.2c0.2,0.1,0.3,0.3,0.3,0.6s-0.3,0.5-0.7,0.6v0c0.3,0.1,0.5,0.3,0.6,0.7c0.1,0.4,0.1,0.6,0.2,0.7h-1c-0.1-0.1-0.1-0.4-0.2-0.6c-0.1-0.3-0.2-0.4-0.5-0.4h-0.3V26z M222.3,24.4h0.3c0.3,0,0.5-0.1,0.5-0.3c0-0.2-0.2-0.4-0.5-0.4c-0.1,0-0.2,0-0.3,0V24.4z"/></g></g></svg>