<?xml version="1.0" encoding="UTF-8"?>
<svg xmlns="http://www.w3.org/2000/svg" xmlns:xlink="http://www.w3.org/1999/xlink" width="53pt" height="30pt" viewBox="0 0 53 30" version="1.1">
<g id="surface1">
<path style=" stroke:none;fill-rule:evenodd;fill:rgb(7.058824%,23.529412%,73.333333%);fill-opacity:1;" d="M 3.53125 0 L 49.449219 0 C 51.398438 0 52.980469 1.582031 52.980469 3.53125 L 52.980469 25.902344 C 52.980469 27.851562 51.398438 29.433594 49.449219 29.433594 L 3.53125 29.433594 C 1.582031 29.433594 0 27.851562 0 25.902344 L 0 3.53125 C 0 1.582031 1.582031 0 3.53125 0 Z M 3.53125 0 "/>
<path style=" stroke:none;fill-rule:evenodd;fill:rgb(100%,100%,100%);fill-opacity:1;" d="M 9.503906 9.613281 L 9.417969 9.777344 L 9.417969 9.9375 C 10.207031 10.066406 11.832031 10.585938 12.367188 10.980469 C 12.753906 11.261719 12.8125 11.789062 12.957031 12.359375 L 14.609375 18.746094 C 14.738281 19.253906 14.863281 19.863281 15.027344 20.34375 L 17.960938 20.359375 C 18.203125 19.890625 19.980469 15.558594 20.21875 14.980469 L 21.902344 10.953125 C 22.019531 10.660156 22.40625 9.863281 22.449219 9.613281 L 19.554688 9.609375 L 16.679688 16.851562 C 16.539062 16.628906 15.65625 11.554688 15.507812 10.800781 C 15.257812 9.507812 14.421875 9.609375 13.113281 9.609375 C 12.726562 9.609375 12.335938 9.605469 11.9375 9.597656 C 11.550781 9.59375 11.164062 9.589844 10.777344 9.589844 C 10.347656 9.589844 9.917969 9.597656 9.503906 9.613281 "/>
<path style=" stroke:none;fill-rule:evenodd;fill:rgb(100%,100%,100%);fill-opacity:1;" d="M 31.765625 9.417969 C 31.761719 9.417969 31.757812 9.417969 31.75 9.417969 C 30.140625 9.425781 28.253906 10.054688 27.519531 11.542969 C 26.628906 13.335938 27.503906 14.789062 29.152344 15.667969 C 29.75 15.980469 30.84375 16.425781 31.007812 16.992188 C 31.300781 17.984375 29.96875 18.3125 29.132812 18.273438 C 27.546875 18.203125 27.460938 17.875 26.554688 17.609375 C 26.453125 17.789062 26.046875 19.703125 26.046875 19.96875 C 28.097656 20.835938 31.808594 20.875 33.320312 18.847656 C 33.765625 18.25 34.105469 17.257812 33.90625 16.277344 C 33.542969 14.503906 31.5625 14.066406 30.511719 13.277344 C 29.398438 12.4375 30.503906 11.308594 32.746094 11.777344 C 33.257812 11.882812 33.5625 12.046875 33.996094 12.171875 L 34.476562 9.875 C 33.476562 9.617188 32.976562 9.421875 31.816406 9.417969 Z M 31.765625 9.417969 "/>
<path style=" stroke:none;fill-rule:evenodd;fill:rgb(100%,100%,100%);fill-opacity:1;" d="M 21.351562 20.351562 L 24.128906 20.355469 L 26.429688 9.613281 L 23.660156 9.609375 Z M 21.351562 20.351562 "/>
<path style=" stroke:none;fill-rule:evenodd;fill:rgb(100%,100%,100%);fill-opacity:1;" d="M 39.222656 9.609375 C 38.433594 9.617188 38.144531 9.988281 37.894531 10.578125 C 37.640625 11.167969 33.847656 20.171875 33.820312 20.359375 L 36.726562 20.359375 L 37.316406 18.753906 L 40.84375 18.757812 C 40.941406 19.015625 40.996094 19.417969 41.054688 19.695312 C 41.21875 20.460938 41.113281 20.367188 41.496094 20.359375 C 41.816406 20.355469 42.136719 20.359375 42.457031 20.359375 C 42.902344 20.367188 43.34375 20.371094 43.777344 20.351562 L 43.777344 20.28125 L 41.519531 9.617188 C 41.246094 9.59375 40.941406 9.589844 40.625 9.589844 C 40.148438 9.589844 39.648438 9.605469 39.222656 9.609375 Z M 38.121094 16.535156 C 38.183594 16.3125 39.464844 12.738281 39.570312 12.585938 L 40.382812 16.546875 Z M 38.121094 16.535156 "/>
</g>
</svg>
